<!-- Generated by IcoMoon.io -->
<svg version="1.1" xmlns="http://www.w3.org/2000/svg" width="13" height="12" viewBox="0 0 13 12">
<title>folder-open</title>
<path d="M12.583 6.375c0 0.161-0.1 0.321-0.208 0.442l-2.25 2.652c-0.388 0.455-1.179 0.817-1.768 0.817h-7.286c-0.241 0-0.583-0.074-0.583-0.375 0-0.161 0.1-0.321 0.208-0.442l2.25-2.652c0.388-0.455 1.179-0.817 1.768-0.817h7.286c0.241 0 0.583 0.074 0.583 0.375zM10.286 4.071v1.071h-5.571c-0.837 0-1.875 0.475-2.417 1.118l-2.29 2.692c0-0.054-0.007-0.114-0.007-0.167v-6.429c0-0.824 0.676-1.5 1.5-1.5h2.143c0.824 0 1.5 0.676 1.5 1.5v0.214h3.643c0.824 0 1.5 0.676 1.5 1.5z"></path>
</svg>
